<svg width="80" height="32" viewBox="0 0 80 32" fill="none" xmlns="http://www.w3.org/2000/svg">
<g clip-path="url(#clip0_80_1978)">
<path d="M2.11846 20.7778C1.75946 21.0107 1.65918 21.491 1.89447 21.8507C2.12977 22.2104 2.61155 22.3132 2.97055 22.0803L2.5445 21.4291L2.11846 20.7778ZM69.3021 15.4096C69.7073 15.5532 70.1506 15.3424 70.2922 14.9387C70.4338 14.535 70.2202 14.0913 69.8149 13.9477L69.5585 14.6786L69.3021 15.4096ZM2.5445 21.4291L2.97055 22.0803C12.9716 15.593 40.3116 5.13327 69.3021 15.4096L69.5585 14.6786L69.8149 13.9477C40.2365 3.46297 12.3906 14.1147 2.11846 20.7778L2.5445 21.4291Z" fill="#FEA36F"/>
<path d="M65.9248 20.4921C65.5073 20.5893 65.2497 21.0064 65.3495 21.4237C65.4492 21.841 65.8685 22.1005 66.286 22.0032L66.1054 21.2477L65.9248 20.4921ZM72.2742 20.1954L72.1794 19.4248L72.1792 19.4248L72.2742 20.1954ZM77.8365 19.388L78.571 19.1383L78.5709 19.1382L77.8365 19.388ZM75.3409 15.1216L74.6642 15.4995L74.6643 15.4995L75.3409 15.1216ZM71.535 6.38434L70.7834 6.57761L70.7834 6.57769L71.535 6.38434ZM71.2995 1.50942C71.2076 1.09037 70.7932 0.823118 70.374 0.912494C69.9547 1.00187 69.6892 1.41403 69.7811 1.83308L70.5403 1.67125L71.2995 1.50942ZM66.1054 21.2477L66.286 22.0032C68.249 21.5461 70.3534 21.2023 72.3691 20.9659L72.2742 20.1954L72.1792 19.4248C70.1181 19.6666 67.9551 20.0193 65.9248 20.4921L66.1054 21.2477ZM72.2742 20.1954L72.3689 20.9659C72.4814 20.9528 72.8783 20.9164 73.4447 20.8611C73.9993 20.807 74.6948 20.7366 75.3731 20.658C76.0476 20.5798 76.7203 20.4918 77.2235 20.4015C77.4693 20.3573 77.7055 20.3074 77.8878 20.2495C77.9696 20.2236 78.0977 20.1789 78.2166 20.1035C78.273 20.0677 78.3871 19.9885 78.4796 19.8495C78.5896 19.6842 78.6699 19.4241 78.571 19.1383L77.8365 19.388L77.1021 19.6378C77.0099 19.3715 77.0867 19.1312 77.1834 18.9858C77.2626 18.8669 77.3536 18.8078 77.3779 18.7924C77.4326 18.7578 77.46 18.7545 77.4095 18.7706C77.3271 18.7967 77.1724 18.8326 76.9401 18.8743C76.4868 18.9557 75.8539 19.0392 75.1853 19.1167C74.5207 19.1937 73.8359 19.2631 73.2848 19.3169C72.7455 19.3695 72.3114 19.4094 72.1794 19.4248L72.2742 20.1954ZM77.8365 19.388L78.5709 19.1382C78.2784 18.2935 77.804 17.5047 77.336 16.7883C76.8487 16.0423 76.39 15.4036 76.0176 14.7437L75.3409 15.1216L74.6643 15.4995C75.0694 16.2173 75.5989 16.9625 76.0353 17.6306C76.491 18.3283 76.8756 18.9838 77.1021 19.6379L77.8365 19.388ZM75.3409 15.1216L76.0176 14.7437C74.4384 11.945 73.0846 9.22071 72.2866 6.19099L71.535 6.38434L70.7834 6.57769C71.6326 9.80163 73.0643 12.6638 74.6642 15.4995L75.3409 15.1216ZM71.535 6.38434L72.2866 6.19107C71.8769 4.63487 71.6593 3.15047 71.2995 1.50942L70.5403 1.67125L69.7811 1.83308C70.1066 3.31769 70.369 5.00361 70.7834 6.57761L71.535 6.38434Z" fill="#FEA36F"/>
</g>
<defs>
<clipPath id="clip0_80_1978">
<rect width="76.7374" height="20.5105" fill="white" transform="matrix(0.988489 -0.151291 0.157091 0.987584 0 11.6097)"/>
</clipPath>
</defs>
</svg>
